<svg xmlns="http://www.w3.org/2000/svg" xmlns:xlink="http://www.w3.org/1999/xlink" width="200" zoomAndPan="magnify" viewBox="0 0 150 149.999998" height="200" preserveAspectRatio="xMidYMid meet" version="1.0"><defs><filter x="0%" y="0%" width="100%" height="100%" id="id1"><feColorMatrix values="0 0 0 0 1 0 0 0 0 1 0 0 0 0 1 0 0 0 1 0" color-interpolation-filters="sRGB"/></filter><clipPath id="id2"><path d="M 16 0 L 139.703125 0 L 139.703125 150 L 16 150 Z M 16 0 " clip-rule="nonzero"/></clipPath><mask id="id3"><g filter="url(#id1)"><rect x="-15" width="180" fill="#000000" y="-15" height="179.999997" fill-opacity="0.498"/></g></mask><clipPath id="id4"><path d="M 0.121094 0.601562 L 46.441406 0.601562 L 46.441406 83.398438 L 0.121094 83.398438 Z M 0.121094 0.601562 " clip-rule="nonzero"/></clipPath><clipPath id="id5"><rect x="0" width="47" y="0" height="84"/></clipPath></defs><g clip-path="url(#id2)"><path fill="#ffffff" d="M 138.910156 113.289062 C 137.285156 98.960938 132.988281 84.828125 126.800781 73.492188 C 122.597656 65.785156 117.894531 59.910156 113.136719 56.332031 C 115.800781 51.355469 115.574219 46.730469 114.675781 43.34375 L 114.578125 42.980469 C 112.320312 34.421875 109.09375 25.179688 102.292969 21.527344 C 97.976562 19.210938 90.28125 18.382812 84.519531 18.382812 C 71.199219 18.382812 68.304688 22.203125 67.351562 23.457031 L 67.335938 23.480469 C 60.726562 32.292969 55.386719 47.121094 57.957031 58.414062 C 58.402344 60.375 59.355469 62.222656 60.832031 63.980469 C 58.195312 66.070312 55.9375 68.558594 54.183594 70.78125 L 52.976562 69.8125 L 49.804688 62.453125 L 32.03125 52.53125 L 31.542969 60.347656 C 31.042969 60.207031 30.53125 60.109375 30.007812 60.058594 C 28.875 59.449219 27.699219 59.144531 26.480469 59.144531 C 25.9375 59.144531 25.398438 59.207031 24.875 59.332031 L 20.203125 60.445312 L 20.421875 62.402344 L 18.570312 62.84375 L 18.984375 66.546875 L 16.050781 66.925781 L 24.574219 82.902344 L 33.9375 82.902344 L 34.84375 85.9375 L 30.710938 99.546875 L 41.328125 150 L 73.753906 133.886719 L 78.171875 119.335938 L 139.59375 119.335938 Z M 38.875 49.703125 C 45.207031 49.703125 51.070312 45.203125 52.8125 39 C 53.09375 38.011719 53.257812 36.953125 53.300781 35.859375 C 53.539062 29.800781 50.128906 24.019531 49.078125 22.390625 C 47.769531 20.367188 47.15625 18.339844 46.429688 15.695312 L 42.125 0 L 36.144531 15.132812 C 36.097656 15.25 36.054688 15.363281 36.011719 15.472656 L 31.191406 9.566406 L 30.097656 23.003906 C 30.042969 23.671875 29.277344 24.714844 28.46875 25.820312 C 26.851562 28.023438 24.640625 31.042969 24.734375 35.429688 C 24.914062 43.433594 31.125 49.703125 38.875 49.703125 Z M 38.875 49.703125 " fill-opacity="1" fill-rule="nonzero"/></g><path fill="#00bd82" d="M 129.558594 90.496094 C 125.886719 79.042969 119.578125 69.496094 114.878906 63.035156 C 110.183594 56.574219 107.101562 59.363281 107.101562 59.363281 C 107.101562 59.363281 109.15625 56.867188 111.0625 52.464844 C 112.972656 48.058594 104.753906 28.527344 102.257812 25.640625 C 99.761719 22.75 79.949219 20.15625 71.875 24.40625 C 63.804688 28.652344 61.75 53.933594 62.1875 56.976562 C 62.628906 60.019531 66.59375 64.945312 66.59375 64.945312 L 54.703125 75.984375 L 50.152344 72.582031 L 40.765625 88.839844 L 40.507812 87.984375 L 39.679688 90.71875 L 34.890625 99.011719 L 44.871094 143.945312 L 71.140625 130.878906 L 76.71875 115.457031 L 135.574219 116.171875 C 135.574219 116.171875 133.226562 101.949219 129.558594 90.496094 Z M 51.9375 129.699219 C 51.460938 131.484375 51.035156 132.964844 50.734375 134 C 50.433594 135.035156 50.246094 135.625 50.246094 135.625 C 50.246094 135.625 50.332031 135.011719 50.507812 133.949219 C 50.679688 132.882812 50.9375 131.363281 51.277344 129.546875 C 51.445312 128.640625 51.628906 127.65625 51.839844 126.617188 C 52.042969 125.582031 52.257812 124.484375 52.496094 123.355469 C 52.738281 122.226562 52.96875 121.058594 53.234375 119.875 C 53.496094 118.691406 53.761719 117.492188 54.027344 116.289062 C 54.308594 115.089844 54.585938 113.890625 54.859375 112.710938 C 55.128906 111.53125 55.425781 110.375 55.695312 109.253906 C 55.964844 108.128906 56.246094 107.050781 56.507812 106.027344 C 56.765625 105 57.027344 104.03125 57.265625 103.140625 C 57.742188 101.355469 58.164062 99.875 58.46875 98.839844 C 58.613281 98.320312 58.742188 97.914062 58.824219 97.636719 C 58.910156 97.359375 58.953125 97.214844 58.953125 97.214844 C 58.953125 97.214844 58.929688 97.367188 58.886719 97.652344 C 58.839844 97.9375 58.785156 98.359375 58.691406 98.890625 C 58.519531 99.953125 58.261719 101.472656 57.921875 103.289062 C 57.753906 104.199219 57.570312 105.183594 57.359375 106.21875 C 57.152344 107.257812 56.941406 108.351562 56.703125 109.480469 C 56.460938 110.609375 56.230469 111.78125 55.964844 112.960938 C 55.703125 114.144531 55.4375 115.347656 55.171875 116.546875 C 54.894531 117.746094 54.617188 118.945312 54.339844 120.125 C 54.074219 121.308594 53.777344 122.464844 53.507812 123.585938 C 53.238281 124.707031 52.957031 125.789062 52.695312 126.8125 C 52.433594 127.839844 52.175781 128.804688 51.9375 129.699219 Z M 88.242188 75.582031 L 76.792969 95.121094 C 76.792969 95.121094 67.972656 70.527344 68.257812 69.488281 C 68.609375 68.210938 71.363281 60.539062 71.363281 60.539062 L 68.453125 60.527344 L 73.125 50.335938 L 75.03125 48.277344 L 80.386719 49.703125 L 87.726562 60.761719 L 86.296875 60.832031 L 86.984375 66.050781 L 86.988281 67.851562 C 87.058594 67.824219 87.136719 67.796875 87.210938 67.769531 Z M 65.523438 51.433594 C 65.484375 51.75 65.457031 52 65.441406 52.171875 C 65.421875 52.34375 65.410156 52.433594 65.410156 52.433594 C 65.410156 52.433594 65.398438 52.34375 65.375 52.171875 C 65.355469 52.003906 65.308594 51.75 65.292969 51.429688 C 65.261719 51.109375 65.242188 50.714844 65.234375 50.265625 C 65.234375 50.042969 65.234375 49.800781 65.238281 49.550781 C 65.242188 49.296875 65.261719 49.03125 65.273438 48.753906 C 65.292969 48.476562 65.316406 48.191406 65.339844 47.894531 C 65.371094 47.597656 65.40625 47.289062 65.449219 46.972656 C 65.539062 46.347656 65.636719 45.683594 65.785156 45.007812 C 65.925781 44.328125 66.082031 43.628906 66.277344 42.929688 C 66.46875 42.226562 66.683594 41.523438 66.925781 40.824219 C 67.167969 40.125 67.429688 39.433594 67.714844 38.765625 C 67.988281 38.089844 68.308594 37.445312 68.613281 36.824219 C 68.925781 36.203125 69.253906 35.617188 69.589844 35.078125 C 69.917969 34.53125 70.265625 34.035156 70.601562 33.589844 C 70.9375 33.144531 71.269531 32.753906 71.585938 32.429688 C 71.898438 32.097656 72.203125 31.839844 72.457031 31.636719 C 72.714844 31.4375 72.929688 31.296875 73.082031 31.21875 C 73.234375 31.136719 73.3125 31.089844 73.3125 31.089844 C 73.3125 31.089844 73.246094 31.15625 73.121094 31.273438 C 72.988281 31.386719 72.824219 31.574219 72.617188 31.808594 C 72.414062 32.046875 72.179688 32.351562 71.933594 32.710938 C 71.808594 32.894531 71.679688 33.085938 71.554688 33.296875 C 71.425781 33.503906 71.296875 33.726562 71.160156 33.960938 C 70.894531 34.429688 70.628906 34.945312 70.355469 35.5 C 70.078125 36.050781 69.824219 36.652344 69.546875 37.261719 C 69.019531 38.503906 68.5 39.84375 68.035156 41.207031 C 67.796875 41.882812 67.582031 42.574219 67.371094 43.246094 C 67.171875 43.925781 66.957031 44.59375 66.789062 45.246094 C 66.617188 45.898438 66.457031 46.53125 66.3125 47.132812 C 66.175781 47.738281 66.050781 48.308594 65.941406 48.839844 C 65.84375 49.375 65.753906 49.863281 65.683594 50.300781 C 65.621094 50.734375 65.558594 51.117188 65.523438 51.433594 Z M 81.804688 29.640625 C 83.347656 30.238281 82.761719 32.40625 81.125 32.117188 C 77.683594 31.507812 76.003906 35.125 76.042969 38.121094 C 76.066406 39.722656 73.660156 39.699219 73.578125 38.121094 C 73.355469 33.910156 76.726562 27.671875 81.804688 29.640625 Z M 81.804688 29.640625 " fill-opacity="1" fill-rule="nonzero"/><path fill="#003024" d="M 44.640625 101.820312 C 45.605469 108.375 47.460938 121.0625 48.105469 125.6875 L 45.203125 139.191406 L 44.914062 137.824219 L 44.914062 137.820312 L 41.863281 92.515625 Z M 69.328125 90.410156 L 55.398438 79.621094 L 50.1875 75.582031 L 56.714844 90.726562 C 56.761719 90.835938 56.773438 90.960938 56.75 91.078125 C 56.75 91.078125 56.75 91.082031 56.75 91.082031 L 56.660156 91.488281 C 59.09375 92.484375 63.011719 94.121094 63.339844 94.449219 C 63.535156 94.644531 63.367188 95.667969 63.359375 95.945312 C 63.265625 100.292969 59.058594 128.820312 58.15625 134.917969 C 58.113281 135.203125 58.078125 135.441406 58.050781 135.625 L 69.238281 130.066406 L 69.242188 130.054688 L 69.238281 130.066406 L 65.511719 131.730469 L 65.535156 131.25 L 67.3125 97.214844 L 71.863281 121.417969 L 74.070312 114.152344 C 74.066406 114.074219 74.058594 113.996094 74.050781 113.917969 Z M 93.839844 58.183594 C 91.820312 60.820312 89.519531 63.296875 86.984375 65.503906 L 86.988281 67.851562 C 95.558594 64.695312 112.054688 56.941406 108.859375 44.886719 L 108.761719 44.515625 C 107.695312 40.472656 104.859375 29.738281 99.445312 26.832031 C 99.148438 26.671875 98.8125 26.519531 98.4375 26.371094 C 99.632812 29.457031 100.488281 32.652344 100.800781 35.96875 C 101.1875 40.121094 100.777344 44.285156 99.367188 48.21875 C 98.078125 51.808594 96.152344 55.15625 93.839844 58.183594 Z M 88.414062 56.503906 C 88.480469 56.390625 88.539062 56.273438 88.601562 56.160156 C 88.648438 56.074219 88.695312 55.992188 88.738281 55.90625 C 89.648438 54.144531 90.332031 52.050781 90.746094 49.820312 L 86.964844 55.234375 L 86.96875 58.566406 L 87.011719 58.632812 C 87.402344 58.085938 87.753906 57.574219 88.039062 57.125 C 88.167969 56.925781 88.292969 56.71875 88.414062 56.503906 Z M 69.683594 57.410156 C 69.539062 57.066406 69.429688 56.683594 69.363281 56.257812 C 69.363281 56.246094 69.359375 56.238281 69.359375 56.226562 C 69.355469 56.210938 69.355469 56.195312 69.355469 56.179688 C 69.25 55.453125 69.257812 54.59375 69.398438 53.554688 C 69.445312 53.234375 69.742188 53.007812 70.0625 53.054688 C 70.183594 53.070312 70.289062 53.125 70.375 53.199219 C 70.515625 53.328125 70.59375 53.519531 70.5625 53.71875 C 70.472656 54.382812 70.4375 54.953125 70.453125 55.453125 L 72.625 49.949219 C 72.472656 49.121094 72.339844 48.292969 72.242188 47.503906 L 69.351562 46.566406 L 72.972656 41.949219 L 72.160156 39.40625 L 72.160156 39.316406 C 71.492188 40.203125 70.867188 41.117188 70.304688 42.046875 C 68.40625 45.171875 67.398438 48.769531 67.320312 52.421875 C 67.257812 55.207031 67.664062 57.925781 68.453125 60.527344 Z M 69.574219 63.574219 L 70.320312 61.246094 L 68.679688 61.246094 C 68.945312 62.035156 69.242188 62.808594 69.574219 63.574219 Z M 77.851562 41.46875 L 81.136719 41.46875 C 80.109375 41.0625 79.222656 40.511719 79.292969 40.492188 C 80.652344 40.125 82.402344 39.128906 84.304688 39.679688 L 82.851562 38.828125 L 77.265625 40.492188 L 77.199219 40.355469 C 77.34375 40.886719 77.519531 41.5 77.628906 41.882812 C 77.761719 41.632812 77.851562 41.46875 77.851562 41.46875 Z M 83.324219 42.082031 C 82.964844 42.578125 82.382812 43.234375 81.683594 43.527344 C 80.480469 44.035156 78.441406 43.96875 77.339844 43.933594 C 77.175781 44.550781 77.003906 45.136719 76.898438 45.269531 C 78.136719 45.246094 79.402344 45.03125 80.566406 44.628906 C 81.761719 44.210938 83.234375 43.453125 83.324219 42.082031 Z M 75.027344 52.894531 L 74.984375 53.203125 L 77.417969 53.332031 L 77.242188 52.824219 Z M 85.792969 56.769531 L 85.792969 56.773438 L 85.789062 54.863281 L 89.738281 49.214844 L 91.121094 47.238281 L 91.121094 47.222656 L 91.128906 47.144531 C 90.289062 47.878906 89.445312 48.609375 88.585938 49.324219 C 87.128906 50.53125 85.625 51.703125 84.3125 53.070312 C 84.125 53.265625 83.941406 53.464844 83.757812 53.667969 Z M 111.34375 113.316406 L 115.902344 93.8125 L 106.023438 113.316406 L 89.84375 113.316406 C 91.800781 112.179688 96.238281 109.515625 100.457031 106.367188 C 100.363281 106.332031 100.265625 106.304688 100.164062 106.273438 C 88.953125 102.503906 82.675781 98.070312 78.378906 93.855469 L 78.523438 93.667969 L 91.339844 77.136719 L 89.546875 70.699219 C 89.546875 70.699219 107.863281 65.800781 108.96875 60.75 C 113.144531 63.707031 117.625 69.234375 121.519531 76.375 C 122.875 78.851562 124.125 81.480469 125.277344 84.214844 C 122.921875 85.042969 113.636719 88.511719 107.144531 93.8125 C 99.65625 99.929688 88.945312 97.214844 88.945312 97.214844 L 88.945312 97.777344 C 88.945312 97.777344 100.835938 102.984375 109.199219 97.214844 C 116.378906 92.261719 125.351562 91 127.753906 90.742188 C 130.175781 97.871094 131.929688 105.550781 132.855469 113.316406 Z M 81.574219 91.011719 C 88.265625 97.402344 118.835938 92.472656 112.429688 70.53125 C 107.507812 74.417969 97.355469 75.671875 92.933594 74.984375 C 92.992188 75.941406 93.488281 81.792969 93.601562 81.902344 C 93.324219 82.035156 86.140625 87.515625 81.574219 91.011719 Z M 66.902344 81.507812 C 69.53125 83.328125 71.421875 85.800781 73.683594 88.589844 L 70.675781 80.035156 C 61.285156 72.453125 57.78125 76.996094 57.78125 76.996094 C 57.78125 76.996094 59.066406 76.089844 66.902344 81.507812 Z M 66.902344 81.507812 " fill-opacity="1" fill-rule="nonzero"/><path fill="#00ffb0" d="M 91.328125 41.90625 C 90.933594 38.550781 89.875 35.628906 88.253906 33.445312 C 88.214844 33.394531 88.175781 33.34375 88.136719 33.292969 C 88.023438 33.144531 87.90625 33.003906 87.789062 32.863281 L 87.632812 32.683594 C 87.570312 32.613281 87.507812 32.542969 87.429688 32.457031 C 87.378906 32.402344 87.328125 32.351562 87.277344 32.296875 C 87.230469 32.25 87.183594 32.203125 87.132812 32.15625 L 86.992188 32.019531 C 86.914062 31.945312 86.835938 31.867188 86.757812 31.796875 L 86.695312 31.738281 C 86.628906 31.679688 86.5625 31.628906 86.496094 31.574219 L 86.320312 31.429688 C 86.238281 31.363281 86.15625 31.296875 86.054688 31.214844 L 86.019531 31.191406 C 85.949219 31.136719 85.875 31.089844 85.804688 31.039062 L 85.625 30.917969 C 85.546875 30.863281 85.46875 30.808594 85.386719 30.757812 L 85.292969 30.695312 C 85.21875 30.652344 85.144531 30.609375 85.066406 30.566406 L 84.894531 30.46875 C 84.820312 30.429688 84.75 30.386719 84.671875 30.347656 L 84.550781 30.285156 L 84.515625 30.277344 C 83.515625 30.0625 82.460938 29.957031 81.378906 29.957031 C 81.746094 30.011719 82.109375 30.121094 82.460938 30.289062 C 81.460938 30.21875 80.425781 30.242188 79.382812 30.371094 C 78.71875 30.449219 78.128906 30.621094 77.605469 30.859375 C 78.21875 30.507812 78.878906 30.222656 79.554688 30.058594 C 79.484375 30.066406 79.414062 30.070312 79.347656 30.078125 C 73.378906 30.796875 73.058594 38.359375 73.042969 39.21875 L 73.039062 39.269531 L 73.738281 41.449219 L 74.449219 40.539062 L 74.910156 40.902344 L 70.824219 46.117188 L 73.960938 47.132812 L 73.777344 47.691406 L 73.117188 47.476562 L 73.183594 47.941406 C 73.222656 48.21875 73.265625 48.5 73.3125 48.78125 L 73.394531 49.285156 L 74.960938 48.007812 L 80.753906 49.621094 L 81.652344 50.988281 L 82.6875 48.132812 L 89.925781 43.773438 L 91.34375 42.027344 Z M 78.429688 31.226562 C 78.585938 31.175781 78.746094 31.132812 78.898438 31.089844 C 79.195312 30.992188 79.496094 30.972656 79.765625 30.9375 C 80.035156 30.894531 80.285156 30.929688 80.503906 30.929688 C 80.71875 30.921875 80.90625 30.964844 81.0625 30.992188 C 81.367188 31.046875 81.535156 31.09375 81.535156 31.09375 C 81.535156 31.09375 81.363281 31.152344 81.070312 31.226562 C 80.925781 31.261719 80.75 31.304688 80.554688 31.375 C 80.460938 31.40625 80.355469 31.441406 80.25 31.476562 C 80.140625 31.511719 80.027344 31.546875 79.917969 31.601562 C 79.691406 31.699219 79.441406 31.78125 79.203125 31.917969 C 79.082031 31.984375 78.953125 32.039062 78.832031 32.109375 C 78.710938 32.191406 78.585938 32.265625 78.464844 32.34375 C 78.335938 32.414062 78.21875 32.507812 78.097656 32.597656 C 77.980469 32.691406 77.851562 32.769531 77.742188 32.878906 C 77.625 32.980469 77.511719 33.085938 77.394531 33.183594 L 77.070312 33.519531 C 76.953125 33.625 76.863281 33.753906 76.761719 33.871094 C 76.664062 33.992188 76.558594 34.109375 76.472656 34.238281 C 76.386719 34.367188 76.289062 34.488281 76.203125 34.613281 C 76.121094 34.746094 76.042969 34.875 75.957031 35 C 75.871094 35.121094 75.8125 35.257812 75.738281 35.382812 C 75.667969 35.511719 75.589844 35.632812 75.53125 35.761719 C 75.410156 36.011719 75.285156 36.25 75.191406 36.480469 C 75.140625 36.59375 75.089844 36.703125 75.042969 36.808594 C 75.003906 36.914062 74.960938 37.015625 74.925781 37.109375 C 74.851562 37.300781 74.777344 37.46875 74.730469 37.617188 C 74.632812 37.90625 74.5625 38.066406 74.5625 38.066406 C 74.5625 38.066406 74.53125 37.894531 74.5 37.589844 C 74.484375 37.4375 74.476562 37.25 74.484375 37.03125 C 74.488281 36.921875 74.492188 36.804688 74.496094 36.679688 C 74.503906 36.558594 74.523438 36.433594 74.539062 36.300781 C 74.566406 36.03125 74.636719 35.75 74.710938 35.445312 C 74.742188 35.292969 74.804688 35.148438 74.855469 34.992188 C 74.910156 34.835938 74.960938 34.675781 75.035156 34.523438 C 75.105469 34.367188 75.183594 34.210938 75.261719 34.054688 C 75.34375 33.898438 75.441406 33.746094 75.539062 33.59375 C 75.628906 33.4375 75.738281 33.289062 75.855469 33.144531 C 75.972656 33.003906 76.078125 32.851562 76.210938 32.71875 L 76.605469 32.328125 C 76.746094 32.207031 76.894531 32.09375 77.039062 31.980469 C 77.175781 31.863281 77.339844 31.777344 77.492188 31.683594 C 77.648438 31.589844 77.792969 31.492188 77.960938 31.429688 C 78.117188 31.363281 78.273438 31.289062 78.429688 31.226562 Z M 36.230469 36.59375 C 37.082031 35.03125 38.773438 34.171875 39.609375 32.597656 C 39.757812 35.628906 42.417969 34.910156 43.003906 37.300781 C 43.59375 39.695312 41.464844 42.546875 38.757812 41.875 C 36.054688 41.207031 35.609375 37.742188 36.230469 36.59375 Z M 37.949219 61.679688 C 37.328125 60.300781 35.304688 61.496094 35.921875 62.867188 C 36.425781 63.984375 38.164062 66.230469 38.277344 66.414062 C 38.226562 66.457031 36.355469 68.097656 36.269531 68.355469 C 36.0625 68.21875 35.816406 68.128906 35.570312 68.113281 C 34.328125 67.449219 32.800781 67.464844 31.714844 66.609375 C 30.777344 65.867188 29.941406 65.09375 28.867188 64.539062 C 27.007812 63.585938 25.285156 64.40625 24.503906 66.269531 C 23.457031 68.765625 23.3125 71.726562 24.605469 74.128906 C 25.738281 76.230469 26.996094 78.148438 29.539062 78.371094 C 31.027344 78.5 32.578125 78.132812 34.050781 77.9375 C 35.523438 77.738281 37.773438 78.097656 37.816406 78.082031 L 50.21875 118.683594 L 56.382812 90.933594 L 45.449219 65.382812 C 45.449219 65.382812 38.214844 62.261719 37.949219 61.679688 Z M 47.246094 74.460938 C 47.351562 74.878906 47.457031 75.292969 47.542969 75.71875 C 47.636719 76.136719 47.710938 76.566406 47.769531 77 C 47.527344 76.632812 47.304688 76.261719 47.101562 75.882812 C 46.886719 75.507812 46.691406 75.125 46.5 74.742188 C 46.117188 73.972656 45.769531 73.195312 45.445312 72.40625 C 44.816406 70.863281 44.265625 69.289062 43.820312 67.679688 C 43.480469 67.460938 43.144531 67.238281 42.816406 67 C 42.625 66.863281 42.429688 66.730469 42.242188 66.582031 C 42.054688 66.4375 41.867188 66.292969 41.683594 66.136719 C 41.917969 66.191406 42.144531 66.257812 42.371094 66.328125 C 42.601562 66.394531 42.824219 66.472656 43.046875 66.550781 C 43.496094 66.699219 43.933594 66.867188 44.371094 67.039062 L 44.484375 67.085938 L 44.574219 67.265625 C 45.320312 68.808594 45.953125 70.390625 46.503906 72.007812 C 46.777344 72.816406 47.027344 73.632812 47.246094 74.460938 Z M 77.242188 52.824219 L 77.417969 53.332031 L 74.984375 53.203125 L 75.027344 52.894531 Z M 77.242188 52.824219 " fill-opacity="1" fill-rule="nonzero"/><g mask="url(#id3)"><g transform="matrix(1, 0, 0, 1, 45, 33)"><g clip-path="url(#id5)"><g clip-path="url(#id4)"><path fill="#003024" d="M 46.035156 8.941406 L 45.757812 9.28125 L 44.726562 10.546875 L 36.574219 17.335938 L 35.941406 16.367188 L 34.480469 15.960938 C 34.679688 15.390625 34.894531 14.828125 35.183594 14.296875 C 35.839844 13.085938 37.304688 12.542969 38.460938 11.941406 C 40.273438 10.992188 42.207031 10.355469 43.789062 9.097656 C 44.160156 6.234375 44.003906 3.3125 43.023438 0.632812 C 44.707031 2.898438 45.671875 5.832031 46.035156 8.941406 Z M 3.453125 53.414062 C 2.976562 57.636719 2.085938 61.796875 0.925781 65.882812 C 0.773438 66.410156 0.617188 66.933594 0.460938 67.460938 L 5.152344 83.171875 L 10.5625 58.019531 L 4.230469 43.332031 C 4.101562 46.6875 3.824219 50.078125 3.453125 53.414062 Z M 40.800781 28.246094 L 38.234375 28.246094 C 38.375 30.890625 38.011719 33.550781 37.269531 36.105469 C 35.546875 42.019531 32.273438 47.28125 28.78125 52.328125 L 31.859375 61.082031 L 40.828125 42.597656 Z M 40.800781 28.246094 " fill-opacity="1" fill-rule="nonzero"/></g></g></g></g><path fill="#000e0a" d="M 38.875 47.355469 C 44.175781 47.355469 49.089844 43.574219 50.554688 38.363281 C 50.78125 37.550781 50.917969 36.675781 50.953125 35.765625 C 51.167969 30.398438 48.0625 25.148438 47.105469 23.664062 C 45.617188 21.359375 44.949219 19.164062 44.167969 16.316406 L 41.722656 7.410156 L 38.328125 16 C 37.578125 17.890625 37.351562 19.34375 37.289062 20.75 L 33.058594 15.566406 L 32.4375 23.195312 C 32.328125 24.523438 31.417969 25.769531 30.359375 27.207031 C 28.867188 29.25 27.003906 31.789062 27.085938 35.378906 C 27.234375 42.09375 32.410156 47.355469 38.875 47.355469 Z M 33.320312 29.378906 C 34.328125 28.003906 35.367188 26.589844 35.84375 24.882812 C 37.03125 26.660156 37.609375 28.507812 37.652344 30.609375 L 37.664062 31.117188 L 38.167969 31.179688 C 38.230469 31.1875 38.292969 31.191406 38.351562 31.191406 C 40.738281 31.191406 40.945312 25.664062 40.949219 23.972656 C 40.953125 23.511719 40.949219 23.085938 40.941406 22.691406 C 40.929688 21.328125 40.917969 20.332031 41.167969 19.183594 C 41.847656 21.453125 42.628906 23.5 44.023438 25.660156 C 45.691406 28.238281 47.421875 32.210938 47.289062 35.621094 C 47.261719 36.242188 47.171875 36.832031 47.023438 37.371094 C 46.007812 40.96875 42.507812 43.683594 38.875 43.683594 C 34.425781 43.683594 30.855469 40 30.753906 35.296875 C 30.699219 32.953125 31.972656 31.21875 33.320312 29.378906 Z M 136.578125 113.554688 C 134.988281 99.519531 130.78125 85.691406 124.742188 74.617188 C 120.21875 66.328125 114.992188 60.144531 109.964844 57.011719 C 113.410156 51.980469 113.285156 47.269531 112.40625 43.949219 L 112.308594 43.578125 C 111.019531 38.695312 108 27.257812 101.179688 23.597656 C 97.242188 21.484375 89.746094 20.734375 84.519531 20.734375 C 78.972656 20.734375 71.820312 21.453125 69.210938 24.890625 C 63.082031 33.066406 57.859375 47.410156 60.246094 57.894531 C 60.757812 60.148438 62.136719 62.273438 64.425781 64.308594 C 60.203125 67.003906 56.710938 71.21875 54.609375 74.140625 L 51.050781 71.28125 L 47.964844 64.117188 L 34.140625 56.402344 L 33.835938 61.285156 C 33.773438 62.269531 33.890625 63.660156 34.375 65.042969 C 34.351562 65.015625 34.332031 64.984375 34.3125 64.960938 L 34.265625 64.894531 C 33.070312 63.34375 31.277344 62.429688 29.316406 62.363281 C 28.394531 61.78125 27.453125 61.496094 26.480469 61.496094 C 26.121094 61.496094 25.765625 61.535156 25.417969 61.621094 L 22.769531 62.25 L 22.984375 64.207031 L 21.136719 64.644531 L 21.4375 67.355469 C 21.46875 67.632812 21.523438 67.953125 21.734375 68.558594 L 19.722656 68.820312 L 25.984375 80.550781 L 35.6875 80.550781 L 37.296875 85.941406 L 33.132812 99.652344 L 43.003906 146.546875 L 71.804688 132.234375 L 76.433594 116.984375 L 136.964844 116.984375 Z M 63.824219 57.078125 C 61.757812 48.011719 66.433594 34.714844 72.144531 27.09375 C 73.40625 25.433594 78.144531 24.40625 84.519531 24.40625 C 90.058594 24.40625 95.417969 25.179688 98.4375 26.371094 C 98.8125 26.519531 99.148438 26.671875 99.445312 26.832031 C 104.859375 29.738281 107.695312 40.472656 108.761719 44.515625 L 108.859375 44.886719 C 112.054688 56.941406 95.558594 64.695312 86.988281 67.851562 L 86.984375 65.503906 L 86.976562 61.246094 L 88.722656 61.246094 L 87.703125 59.6875 C 88.210938 58.988281 88.667969 58.324219 89.027344 57.757812 C 89.167969 57.542969 89.300781 57.316406 89.433594 57.089844 C 89.46875 57.023438 89.507812 56.953125 89.542969 56.886719 C 89.628906 56.734375 89.710938 56.582031 89.792969 56.421875 C 89.859375 56.296875 89.921875 56.171875 89.984375 56.042969 C 90.03125 55.945312 90.078125 55.847656 90.125 55.75 C 90.203125 55.582031 90.277344 55.414062 90.351562 55.242188 C 90.378906 55.1875 90.402344 55.128906 90.425781 55.070312 C 90.515625 54.867188 90.597656 54.660156 90.679688 54.453125 C 90.683594 54.4375 90.691406 54.421875 90.699219 54.40625 C 91.140625 53.253906 91.503906 52.023438 91.777344 50.746094 C 91.796875 50.664062 91.816406 50.582031 91.832031 50.5 C 91.859375 50.375 91.882812 50.25 91.90625 50.125 C 91.945312 49.917969 91.984375 49.714844 92.015625 49.507812 C 92.023438 49.464844 92.03125 49.421875 92.039062 49.382812 C 92.488281 46.636719 92.546875 43.730469 92.117188 40.964844 L 92.082031 40.652344 L 92.070312 40.667969 C 91.851562 39.355469 91.519531 38.078125 91.070312 36.867188 C 91.035156 36.777344 91 36.683594 90.964844 36.59375 C 90.929688 36.503906 90.894531 36.414062 90.859375 36.324219 C 90.085938 34.410156 89.03125 32.78125 87.734375 31.503906 C 87.714844 31.484375 87.695312 31.46875 87.679688 31.449219 C 87.613281 31.386719 87.546875 31.324219 87.480469 31.261719 C 87.425781 31.210938 87.367188 31.160156 87.3125 31.109375 C 87.269531 31.070312 87.230469 31.035156 87.1875 31 C 85.304688 29.355469 82.59375 28.089844 78.769531 28.300781 C 78.75 28.300781 78.734375 28.300781 78.71875 28.304688 C 78.519531 28.316406 78.316406 28.332031 78.109375 28.351562 C 78.078125 28.351562 78.042969 28.355469 78.007812 28.359375 C 77.820312 28.378906 77.632812 28.402344 77.445312 28.429688 C 77.394531 28.433594 77.34375 28.441406 77.296875 28.449219 C 77.121094 28.472656 76.949219 28.503906 76.769531 28.53125 C 76.707031 28.542969 76.640625 28.554688 76.578125 28.566406 C 76.417969 28.59375 76.257812 28.628906 76.09375 28.664062 C 76.011719 28.679688 75.933594 28.695312 75.851562 28.714844 C 75.710938 28.746094 75.566406 28.78125 75.421875 28.816406 C 75.320312 28.84375 75.21875 28.863281 75.113281 28.890625 C 75.015625 28.917969 74.917969 28.949219 74.816406 28.972656 C 74.671875 29.015625 74.523438 29.054688 74.375 29.097656 C 74.335938 29.109375 74.300781 29.125 74.265625 29.144531 C 74.023438 29.269531 73.898438 29.554688 73.980469 29.828125 C 74.070312 30.136719 74.398438 30.316406 74.710938 30.222656 C 74.738281 30.214844 74.765625 30.207031 74.792969 30.199219 C 74.96875 30.148438 75.144531 30.101562 75.320312 30.054688 C 75.410156 30.03125 75.503906 30.007812 75.59375 29.984375 C 75.703125 29.957031 75.808594 29.929688 75.914062 29.90625 C 76.027344 29.882812 76.136719 29.855469 76.25 29.832031 C 76.308594 29.816406 76.371094 29.804688 76.433594 29.792969 C 76.824219 29.714844 77.210938 29.648438 77.589844 29.597656 C 72.230469 31.5625 72.160156 39.230469 72.160156 39.3125 L 72.160156 39.40625 L 72.972656 41.949219 L 69.351562 46.566406 L 72.242188 47.503906 C 72.339844 48.292969 72.472656 49.121094 72.625 49.949219 L 70.453125 55.453125 C 70.4375 54.953125 70.472656 54.382812 70.5625 53.71875 C 70.589844 53.519531 70.515625 53.328125 70.375 53.199219 C 70.289062 53.125 70.183594 53.070312 70.0625 53.054688 C 69.742188 53.007812 69.445312 53.234375 69.398438 53.554688 C 69.257812 54.59375 69.25 55.453125 69.351562 56.179688 C 69.355469 56.195312 69.355469 56.210938 69.359375 56.226562 C 69.359375 56.238281 69.363281 56.246094 69.363281 56.257812 C 69.429688 56.683594 69.539062 57.066406 69.683594 57.410156 L 68.453125 60.527344 L 68.167969 61.246094 L 70.320312 61.246094 L 69.574219 63.574219 L 69.5625 63.605469 C 66.71875 61.742188 64.378906 59.523438 63.824219 57.078125 Z M 77.832031 54.527344 L 80.152344 61.246094 L 85.800781 61.246094 L 85.828125 75.597656 L 76.859375 94.082031 L 73.78125 85.328125 L 68.574219 70.519531 L 71.554688 61.246094 L 73.867188 61.246094 L 74.824219 54.371094 Z M 74.984375 53.203125 L 75.027344 52.894531 L 77.242188 52.824219 L 77.417969 53.332031 Z M 80.988281 60.070312 L 78.070312 51.621094 L 74.003906 51.75 L 72.847656 60.070312 L 69.894531 60.070312 L 73.847656 50.050781 L 75.160156 48.980469 L 80.199219 50.378906 L 86.550781 60.070312 Z M 71.3125 45.96875 L 75.320312 40.851562 L 74.398438 40.128906 L 73.847656 40.832031 L 73.335938 39.226562 C 73.351562 38.289062 73.679688 31.058594 79.378906 30.371094 C 81.140625 30.160156 82.863281 30.226562 84.453125 30.5625 C 84.480469 30.578125 84.507812 30.59375 84.539062 30.609375 C 84.632812 30.660156 84.726562 30.714844 84.820312 30.765625 C 84.925781 30.828125 85.035156 30.882812 85.140625 30.949219 C 85.167969 30.964844 85.199219 30.988281 85.226562 31.003906 C 85.332031 31.070312 85.433594 31.144531 85.535156 31.214844 C 85.640625 31.285156 85.746094 31.351562 85.84375 31.425781 C 85.863281 31.441406 85.878906 31.453125 85.898438 31.46875 C 86.003906 31.550781 86.109375 31.636719 86.214844 31.726562 C 86.308594 31.800781 86.40625 31.875 86.5 31.957031 C 86.519531 31.976562 86.539062 31.996094 86.558594 32.015625 C 86.660156 32.105469 86.757812 32.203125 86.855469 32.296875 C 86.925781 32.367188 86.996094 32.433594 87.066406 32.503906 C 87.121094 32.558594 87.175781 32.617188 87.226562 32.675781 C 87.304688 32.757812 87.382812 32.847656 87.457031 32.933594 C 87.492188 32.972656 87.527344 33.011719 87.5625 33.050781 C 87.679688 33.1875 87.792969 33.328125 87.902344 33.472656 C 87.941406 33.523438 87.980469 33.574219 88.015625 33.621094 C 88.019531 33.625 88.019531 33.628906 88.023438 33.632812 C 89.707031 35.898438 90.671875 38.832031 91.035156 41.941406 L 90.757812 42.28125 L 89.726562 43.546875 L 82.445312 47.9375 L 81.574219 50.335938 L 80.941406 49.367188 L 79.480469 48.960938 L 74.890625 47.683594 L 73.601562 48.734375 C 73.554688 48.453125 73.511719 48.175781 73.472656 47.902344 L 73.964844 48.0625 L 74.328125 46.945312 Z M 85.792969 56.769531 L 83.757812 53.667969 L 82.378906 51.5625 L 83.40625 48.726562 L 90.507812 44.449219 L 90.574219 44.367188 L 91.1875 43.613281 C 91.191406 43.671875 91.191406 43.730469 91.195312 43.789062 L 91.15625 46.753906 L 91.128906 47.144531 L 91.121094 47.222656 L 91.121094 47.238281 L 89.738281 49.214844 L 85.789062 54.863281 Z M 90.746094 49.824219 C 90.332031 52.050781 89.648438 54.144531 88.738281 55.90625 C 88.695312 55.992188 88.648438 56.074219 88.601562 56.160156 C 88.539062 56.277344 88.476562 56.390625 88.414062 56.503906 C 88.292969 56.71875 88.167969 56.925781 88.039062 57.125 C 87.753906 57.574219 87.402344 58.085938 87.011719 58.632812 L 86.96875 58.570312 L 86.964844 55.234375 Z M 31.34375 67.121094 C 31.84375 67.804688 32.910156 68.910156 32.953125 68.957031 C 33.0625 69.066406 33.210938 69.132812 33.367188 69.132812 L 35.3125 69.167969 L 35.019531 69.660156 L 32 69.660156 C 31.65625 68.980469 30.871094 67.539062 29.863281 66.28125 L 29.785156 66.109375 C 30.269531 66.226562 30.867188 66.496094 31.34375 67.121094 Z M 31.109375 70.503906 L 31.269531 70.835938 L 34.328125 70.835938 L 33.734375 71.84375 L 30.160156 71.84375 C 29.90625 71.34375 29.414062 70.433594 28.769531 69.5 C 27.691406 67.15625 27.175781 65.910156 26.933594 65.253906 C 28.429688 65.804688 30.320312 68.863281 31.109375 70.503906 Z M 29.265625 72.683594 L 29.425781 73.015625 L 33.042969 73.015625 L 32.261719 74.34375 L 29.40625 74.34375 C 29.082031 73.847656 28.375 72.78125 28 72.261719 C 27.644531 71.800781 27.246094 71.476562 26.851562 71.246094 C 25.976562 69.335938 25.53125 68.261719 25.308594 67.667969 C 26.625 68.203125 28.328125 70.730469 29.265625 72.683594 Z M 28.183594 76.878906 L 25.566406 71.972656 C 26.035156 72.097656 26.601562 72.371094 27.058594 72.964844 C 27.523438 73.605469 28.589844 75.238281 28.597656 75.253906 L 28.773438 75.519531 L 32.929688 75.519531 L 36.238281 69.90625 C 36.757812 70.84375 37.75 72.15625 39.515625 72.964844 L 40.003906 71.894531 C 38.449219 71.183594 37.601562 69.976562 37.195312 69.199219 L 38.328125 69.21875 C 38.554688 69.230469 38.765625 69.09375 38.863281 68.890625 L 39.902344 66.796875 C 39.96875 66.65625 39.980469 66.492188 39.929688 66.34375 C 39.878906 66.195312 39.769531 66.074219 39.628906 66.003906 C 38.214844 65.332031 37.695312 63.675781 37.542969 62.503906 L 45.085938 66.714844 L 49.230469 76.332031 L 55.5625 91.019531 L 50.152344 116.171875 L 45.460938 100.460938 L 38.417969 76.878906 Z M 44.914062 137.820312 L 36.914062 99.816406 L 40.507812 87.984375 L 41.863281 92.515625 L 44.640625 101.820312 C 45.605469 108.375 47.460938 121.0625 48.105469 125.6875 L 45.203125 139.191406 Z M 71.628906 120.171875 L 67.3125 97.214844 L 65.535156 131.25 L 58.15625 134.917969 L 46.027344 140.941406 L 47.203125 135.464844 L 56.660156 91.488281 L 56.75 91.082031 C 56.75 91.082031 56.75 91.078125 56.75 91.078125 L 56.789062 90.898438 L 56.714844 90.726562 L 50.1875 75.582031 L 55.402344 79.621094 L 69.328125 90.410156 L 73.546875 113.863281 Z M 111.34375 113.3125 L 115.902344 93.8125 L 106.023438 113.3125 L 80.566406 113.3125 L 70.84375 92.210938 L 70.402344 89.757812 L 56.015625 78.609375 C 57.261719 76.652344 62.601562 68.703125 68.742188 66.15625 L 67.335938 70.539062 L 68.335938 73.375 L 73.207031 87.234375 L 73.683594 88.589844 L 76.6875 97.128906 L 78.265625 93.871094 L 78.238281 94.035156 L 78.378906 93.855469 L 78.523438 93.667969 L 91.335938 77.140625 L 89.546875 70.703125 C 89.546875 70.703125 107.859375 65.800781 108.96875 60.75 C 113.144531 63.707031 117.625 69.234375 121.519531 76.375 C 122.871094 78.851562 124.125 81.480469 125.277344 84.214844 C 122.921875 85.042969 113.636719 88.507812 107.144531 93.8125 C 99.65625 99.929688 88.945312 97.214844 88.945312 97.214844 L 88.945312 97.777344 C 88.945312 97.777344 100.832031 102.980469 109.199219 97.214844 C 116.378906 92.261719 125.351562 91 127.75 90.742188 C 130.175781 97.875 131.929688 105.546875 132.855469 113.3125 Z M 81.136719 41.46875 L 83.722656 41.46875 C 83.722656 41.46875 83.578125 41.734375 83.324219 42.082031 C 82.964844 42.578125 82.382812 43.234375 81.683594 43.527344 C 80.484375 44.035156 78.441406 43.96875 77.339844 43.933594 C 77.101562 43.925781 76.910156 43.917969 76.777344 43.917969 C 76.910156 43.320312 77.355469 42.410156 77.628906 41.882812 C 77.761719 41.632812 77.851562 41.46875 77.851562 41.46875 Z M 77.199219 40.355469 L 75.992188 37.945312 L 82.851562 36.867188 L 85.679688 40.492188 L 84.304688 39.679688 L 82.851562 38.828125 L 77.265625 40.492188 Z M 77.199219 40.355469 " fill-opacity="1" fill-rule="nonzero"/></svg>